<?xml version="1.0" standalone="no"?>
<!DOCTYPE svg PUBLIC "-//W3C//DTD SVG 20010904//EN"
 "http://www.w3.org/TR/2001/REC-SVG-20010904/DTD/svg10.dtd">
<svg version="1.0" xmlns="http://www.w3.org/2000/svg"
 width="260.000000pt" height="260.000000pt" viewBox="0 0 260.000000 260.000000"
 preserveAspectRatio="xMidYMid meet">
<metadata>
Created by potrace 1.11, written by Peter Selinger 2001-2013
</metadata>
<g transform="translate(0.000000,260.000000) scale(0.100000,-0.100000)"
fill="#000000" stroke="none">
<path d="M871 2544 c0 -11 3 -14 6 -6 3 7 2 16 -1 19 -3 4 -6 -2 -5 -13z"/>
<path d="M870 2508 c0 -7 -12 -35 -26 -63 -30 -58 -33 -100 -10 -144 21 -41
26 -39 16 5 -6 27 -3 54 12 102 26 86 29 100 17 107 -5 4 -9 0 -9 -7z"/>
<path d="M1045 2251 c-66 -49 -123 -88 -126 -85 -4 2 -4 21 -2 42 l5 39 -59
-1 c-46 -1 -57 -4 -55 -16 4 -17 3 -152 0 -155 -254 -186 -325 -239 -333 -247
-5 -5 91 42 215 106 124 64 285 146 357 183 l132 68 68 -36 c38 -20 172 -89
298 -154 127 -65 254 -131 283 -146 28 -15 52 -26 52 -24 0 2 -31 26 -69 54
-59 44 -68 54 -63 76 2 14 7 25 9 25 3 0 3 -11 0 -25 -5 -30 20 -48 61 -43 22
3 26 8 27 36 0 17 -4 33 -10 33 -44 5 -132 4 -140 -2 -9 -7 -49 21 -373 262
-73 54 -138 99 -145 99 -7 0 -66 -40 -132 -89z m676 -298 c13 -16 12 -17 -3
-4 -10 7 -18 15 -18 17 0 8 8 3 21 -13z"/>
<path d="M1631 2219 c-93 -69 -120 -94 -112 -102 9 -9 40 2 126 46 l114 59
178 -93 c98 -50 184 -96 191 -102 7 -5 14 -8 16 -6 3 4 -367 280 -383 287 -4
1 -63 -39 -130 -89z"/>
<path d="M1096 1995 c-27 -13 -52 -28 -55 -34 -5 -8 -6 -64 -2 -103 1 -5 29
-8 64 -8 l62 0 2 85 c0 58 -3 85 -11 84 -6 0 -33 -11 -60 -24z"/>
<path d="M1190 1936 l0 -86 63 0 63 0 1 59 1 59 -52 22 c-28 12 -57 24 -63 27
-10 4 -13 -16 -13 -81z"/>
<path d="M2474 1933 c-254 -231 -645 -388 -1044 -420 -36 -3 -74 -6 -85 -8
-11 -2 -83 -4 -160 -5 l-140 -2 120 -24 c161 -32 185 -35 370 -38 208 -4 338
16 495 76 182 70 361 222 443 377 21 39 37 71 35 71 -2 0 -17 -12 -34 -27z"/>
<path d="M1037 1778 c1 -29 2 -57 2 -61 1 -4 29 -7 64 -5 l62 3 1 58 1 57 -66
0 -66 0 2 -52z"/>
<path d="M1190 1770 l0 -60 64 0 64 0 -1 60 -1 60 -63 0 -63 0 0 -60z"/>
<path d="M2145 1778 c-108 -57 -300 -108 -465 -124 -83 -7 -345 -7 -455 1
-194 15 -442 14 -520 0 -155 -30 -313 -94 -445 -181 -72 -47 -240 -201 -180
-164 263 160 506 221 930 235 280 9 448 16 472 20 13 2 50 6 83 9 33 3 70 8
81 10 12 2 37 7 55 10 144 24 383 118 469 186 32 25 25 24 -25 -2z"/>
<path d="M1433 1355 c0 -8 4 -12 9 -9 5 3 6 10 3 15 -9 13 -12 11 -12 -6z"/>
<path d="M729 1296 c-2 -2 -24 -6 -49 -9 -25 -3 -67 -10 -93 -16 -60 -14 -148
-18 -165 -7 -6 4 -12 4 -12 -1 0 -4 -59 -8 -130 -8 -125 1 -165 -5 -142 -19 6
-3 83 -6 172 -7 l162 0 -38 -20 c-22 -12 -44 -21 -51 -22 -7 0 -10 -4 -7 -9 3
-4 1 -8 -4 -8 -5 0 -29 -19 -52 -42 -24 -24 -47 -42 -52 -40 -5 1 -6 -3 -2 -9
3 -6 3 -14 -2 -18 -15 -10 -41 -75 -38 -93 1 -10 -1 -18 -6 -18 -4 0 -3 -17 3
-37 12 -43 61 -93 89 -93 11 0 17 -4 13 -9 -3 -5 0 -13 6 -17 7 -4 9 -3 5 4
-3 6 -2 13 4 17 5 3 10 2 10 -3 0 -6 10 -8 22 -4 12 3 19 1 15 -5 -3 -5 0 -10
8 -10 8 0 12 4 9 9 -3 4 2 8 10 8 10 0 13 -6 10 -15 -4 -8 -10 -15 -16 -15 -5
0 -7 -4 -4 -8 3 -5 -5 -31 -18 -58 l-23 -50 -107 -2 c-59 -1 -112 -4 -117 -7
-24 -15 0 -20 99 -20 l109 0 -15 -35 c-8 -19 -23 -55 -35 -80 -11 -25 -35 -79
-53 -120 l-33 -75 81 -3 c66 -2 83 0 90 13 5 8 14 12 20 9 6 -4 8 -3 5 3 -4 6
-2 24 4 41 8 22 15 29 27 25 12 -3 14 -2 4 4 -17 13 -4 46 16 38 13 -5 13 -3
1 11 -11 13 -11 18 -1 21 6 3 12 11 12 19 0 21 43 104 51 98 4 -2 5 4 2 14 -4
18 3 20 47 13 4 -1 5 -86 0 -86 0 0 -2 -49 -4 -108 -2 -74 0 -110 8 -113 16
-6 245 -10 243 -4 -3 15 16 49 25 44 7 -4 8 -2 4 4 -8 13 37 96 47 86 3 -3 3
3 0 15 -3 14 0 23 11 27 9 3 13 11 10 16 -4 6 2 8 17 4 20 -6 21 -5 7 4 -16
10 -15 14 8 61 17 32 31 49 39 45 8 -3 16 0 19 7 3 7 3 -1 0 -18 -3 -16 -6
-39 -7 -50 -1 -11 -11 -28 -22 -37 -15 -13 -17 -19 -8 -28 8 -9 11 -8 10 5 -1
10 4 20 11 22 9 4 10 -1 2 -22 -5 -14 -10 -38 -10 -51 0 -14 -4 -23 -8 -20 -5
3 -6 -9 -4 -26 4 -23 2 -29 -8 -23 -9 6 -11 4 -4 -6 4 -8 7 -24 5 -36 -3 -25
-4 -24 114 -24 118 0 158 1 153 7 -4 3 -2 20 3 37 11 38 20 81 24 122 5 41 9
58 18 72 4 6 1 14 -5 16 -10 4 -10 6 -1 6 7 1 10 8 7 16 -4 8 -1 15 6 15 6 0
9 4 6 9 -7 10 19 23 28 14 9 -10 7 -25 -3 -19 -5 4 -7 -3 -4 -15 4 -12 0 -25
-8 -30 -8 -5 -9 -9 -4 -9 6 0 11 -8 12 -17 2 -57 8 -93 14 -93 6 0 20 -30 23
-50 3 -22 131 -88 182 -95 64 -8 224 -4 224 6 0 4 15 10 33 13 18 3 59 20 91
36 32 17 62 27 68 24 7 -4 8 -2 4 4 -4 7 8 21 28 34 29 19 105 110 114 138 2
6 -6 10 -18 10 -12 0 -19 4 -16 8 12 20 -48 2 -67 -20 -20 -23 -91 -71 -109
-74 -5 -1 -9 -2 -10 -4 -8 -5 -49 -12 -91 -15 -26 -1 -51 -5 -54 -8 -3 -3 -15
-1 -27 5 -11 6 -28 14 -36 18 -27 12 -42 59 -35 106 4 31 11 44 23 45 9 1 24
2 32 3 8 0 18 -3 22 -9 5 -6 8 -5 8 3 0 6 5 12 11 12 5 0 7 -6 3 -12 -6 -10
-4 -10 7 0 15 14 33 16 24 3 -3 -5 -1 -13 5 -16 6 -4 9 -1 8 6 -2 9 16 13 59
14 56 2 61 0 50 -14 -11 -14 -10 -15 7 -1 20 16 110 21 138 8 9 -4 19 -4 22 0
4 7 56 8 109 3 5 -1 5 -5 2 -11 -6 -10 21 -14 59 -10 13 1 16 -2 10 -12 -6
-10 -5 -11 7 -2 8 7 33 11 56 10 31 -1 43 2 46 14 3 13 15 16 51 14 39 -2 47
0 42 13 -3 8 -6 16 -6 17 0 1 -16 0 -35 -2 -19 -2 -35 -3 -35 -1 0 21 48 148
54 142 4 -4 5 -1 2 7 -8 19 59 212 69 202 5 -4 5 -2 2 4 -4 6 14 71 38 145 50
147 48 142 36 135 -4 -3 -40 -7 -79 -10 -39 -2 -75 -7 -79 -9 -5 -3 -31 -4
-60 -4 -28 1 -49 -1 -47 -4 2 -4 -4 -10 -13 -14 -10 -3 -19 -1 -21 4 -2 6 -9
8 -15 4 -22 -13 -235 -6 -265 10 -42 20 -177 22 -236 2 -56 -19 -346 -27 -346
-10 0 6 -52 10 -135 10 -83 0 -135 -4 -135 -10 0 -5 -20 -10 -44 -10 -24 0
-42 4 -38 9 3 5 -1 6 -8 1 -15 -9 -137 -10 -162 -1 -10 3 -26 9 -35 12 -10 4
-32 8 -49 9 -17 1 -35 5 -41 8 -6 4 -12 5 -14 3z m371 -72 c0 -4 -103 -204
-141 -275 -8 -14 -20 -24 -27 -21 -6 2 -12 -1 -12 -7 0 -6 5 -11 10 -11 6 0
10 -4 10 -10 0 -5 -7 -10 -15 -10 -10 0 -12 -6 -8 -17 6 -16 5 -17 -12 -3 -17
14 -18 14 -6 -8 13 -25 1 -53 -23 -51 -7 0 -6 2 2 6 6 2 12 14 12 26 0 21 -1
21 -14 -3 -7 -14 -9 -29 -4 -34 12 -15 10 -28 -4 -20 -8 5 -9 2 -5 -9 3 -10 2
-17 -4 -17 -6 0 -7 -4 -4 -10 3 -5 1 -10 -4 -10 -6 0 -9 10 -7 23 3 12 5 39 5
60 1 27 5 36 14 32 6 -4 5 -1 -3 7 -11 9 -14 23 -10 48 3 19 5 47 5 62 -1 15
2 25 7 22 4 -3 8 0 8 5 0 6 -4 11 -9 11 -4 0 -6 12 -4 28 2 15 5 36 6 47 2 11
7 26 11 34 6 9 5 12 -2 7 -7 -4 -9 11 -7 46 2 29 4 54 4 55 2 4 231 1 231 -3z
m515 -10 c-37 -26 -83 -73 -78 -78 3 -3 -2 -8 -11 -12 -9 -3 -13 -10 -10 -15
3 -6 0 -20 -8 -32 -7 -12 -13 -38 -13 -57 0 -19 -7 -41 -15 -48 -13 -10 -13
-11 2 -6 13 4 19 -1 24 -23 4 -15 10 -30 13 -33 3 -3 15 -16 26 -29 17 -20 17
-23 3 -18 -9 3 -19 0 -22 -9 -3 -8 -10 -14 -16 -14 -6 0 -8 5 -3 13 4 6 -10
-5 -32 -26 -24 -23 -45 -35 -54 -32 -9 3 -12 3 -8 -1 3 -4 -7 -23 -23 -44 -16
-20 -34 -48 -41 -63 -9 -21 -19 -27 -40 -25 -19 2 -25 6 -21 18 3 8 10 18 16
22 8 6 8 8 0 8 -11 0 -16 30 -5 30 3 0 7 17 8 37 1 21 7 39 14 42 8 2 7 6 -2
12 -10 6 -11 11 -3 17 6 4 10 19 10 35 -1 15 2 27 7 27 4 0 6 4 3 8 -3 5 6 75
19 156 14 82 25 150 25 152 0 2 57 4 128 3 112 0 125 -2 107 -15z m650 3 c-2
-6 -6 -28 -9 -47 -8 -49 -15 -90 -23 -125 -4 -16 -8 -34 -9 -40 -1 -5 -5 -30
-9 -55 -3 -25 -10 -46 -14 -48 -4 -1 -5 -17 -3 -34 3 -18 1 -28 -5 -25 -5 4
-8 -7 -5 -25 3 -17 1 -28 -5 -25 -5 3 -7 -10 -5 -30 3 -23 1 -33 -6 -29 -6 3
-14 1 -18 -5 -4 -8 -3 -9 4 -5 13 8 15 -7 6 -40 -6 -21 -9 -21 -267 -21 -144
1 -254 3 -245 5 9 2 15 9 12 17 -3 7 5 20 18 29 12 9 19 16 15 16 -4 0 -2 6 5
14 7 8 16 12 21 9 4 -2 7 3 7 11 0 9 5 16 11 16 6 0 22 9 36 20 14 11 43 25
63 30 49 13 45 40 -9 63 -50 22 -74 50 -87 100 -23 89 41 181 124 181 46 0 64
-15 57 -49 -2 -11 -4 -26 -4 -33 -1 -7 -13 -24 -28 -38 -20 -19 -28 -21 -35
-12 -6 10 -8 9 -8 -4 0 -9 5 -20 10 -23 6 -4 7 -12 4 -18 -4 -7 -3 -9 1 -4 5
4 20 0 33 -9 18 -12 37 -15 71 -10 25 4 52 7 59 8 6 1 10 3 8 6 -3 2 6 16 19
30 13 14 27 39 30 54 4 18 11 26 18 22 8 -5 8 -2 0 7 -7 7 -13 24 -13 39 0 14
-9 39 -20 57 l-19 32 109 0 c82 0 108 -3 105 -12z m-1685 -76 c0 -6 -4 -13
-10 -16 -5 -3 -10 -15 -10 -26 0 -10 -4 -19 -10 -19 -5 0 -9 -5 -7 -12 1 -7
-4 -13 -10 -14 -7 -1 -16 -3 -20 -4 -5 -1 -11 -2 -14 -2 -3 1 -6 -6 -6 -14 0
-11 4 -11 19 3 21 19 22 17 7 -26 -12 -34 -18 -37 -39 -18 -9 7 -8 4 1 -8 19
-23 14 -45 -9 -45 -15 0 -15 -2 -2 -10 12 -8 13 -12 2 -19 -8 -4 -13 -11 -12
-15 1 -4 -4 -20 -10 -37 -9 -21 -15 -26 -21 -18 -4 7 -5 17 -3 21 3 4 1 8 -5
8 -6 0 -8 26 -6 65 4 77 34 130 103 182 44 34 62 40 62 24z m4 -413 c-4 -13
-8 -33 -8 -45 0 -14 -6 -21 -18 -20 -22 2 -22 7 -3 33 8 10 15 27 15 37 0 9 5
17 11 17 6 0 8 -9 3 -22z m442 -10 c-5 -31 -18 -58 -27 -58 -5 0 -4 10 3 23 7
12 13 25 14 30 3 15 4 17 8 17 2 0 3 -6 2 -12z"/>
<path d="M935 1180 c-3 -5 -1 -10 4 -10 6 0 11 5 11 10 0 6 -2 10 -4 10 -3 0
-8 -4 -11 -10z"/>
<path d="M1010 1180 c0 -5 5 -10 11 -10 5 0 7 5 4 10 -3 6 -8 10 -11 10 -2 0
-4 -4 -4 -10z"/>
<path d="M894 1129 c-3 -6 -2 -15 3 -20 5 -5 9 -1 9 11 0 23 -2 24 -12 9z"/>
<path d="M933 1125 c0 -8 4 -15 9 -15 4 0 8 4 8 9 0 6 -4 12 -8 15 -5 3 -9 -1
-9 -9z"/>
<path d="M990 1117 c0 -2 6 -10 14 -16 11 -9 16 -9 22 1 4 7 4 10 -1 6 -4 -4
-14 -3 -22 3 -7 6 -13 9 -13 6z"/>
<path d="M886 1079 c4 -7 101 -6 108 1 3 3 -22 5 -54 5 -32 0 -56 -3 -54 -6z"/>
<path d="M897 1039 c4 -13 8 -18 11 -10 2 7 -1 18 -6 23 -8 8 -9 4 -5 -13z"/>
<path d="M870 1040 c0 -5 5 -10 11 -10 5 0 7 5 4 10 -3 6 -8 10 -11 10 -2 0
-4 -4 -4 -10z"/>
<path d="M960 1020 c8 -5 20 -10 25 -10 6 0 3 5 -5 10 -8 5 -19 10 -25 10 -5
0 -3 -5 5 -10z"/>
<path d="M923 1000 c-11 -16 -10 -18 2 -14 8 4 15 12 15 20 0 19 -3 18 -17 -6z"/>
<path d="M953 995 c0 -8 4 -12 9 -9 5 3 6 10 3 15 -9 13 -12 11 -12 -6z"/>
<path d="M876 983 c-6 -14 -5 -15 5 -6 7 7 10 15 7 18 -3 3 -9 -2 -12 -12z"/>
<path d="M890 960 c0 -5 5 -10 10 -10 6 0 10 5 10 10 0 6 -4 10 -10 10 -5 0
-10 -4 -10 -10z"/>
<path d="M860 936 c0 -2 7 -6 15 -10 8 -3 15 -1 15 4 0 6 -7 10 -15 10 -8 0
-15 -2 -15 -4z"/>
<path d="M874 898 c12 -7 21 -7 28 0 6 6 0 10 -18 10 -23 0 -24 -2 -10 -10z"/>
<path d="M860 880 c0 -5 5 -10 11 -10 5 0 7 5 4 10 -3 6 -8 10 -11 10 -2 0 -4
-4 -4 -10z"/>
<path d="M1476 1162 c-3 -5 1 -9 9 -9 8 0 12 4 9 9 -3 4 -7 8 -9 8 -2 0 -6 -4
-9 -8z"/>
<path d="M1415 1100 c3 -5 8 -10 11 -10 2 0 4 5 4 10 0 6 -5 10 -11 10 -5 0
-7 -4 -4 -10z"/>
<path d="M1350 996 c0 -2 8 -10 18 -17 15 -13 16 -12 3 4 -13 16 -21 21 -21
13z"/>
<path d="M1353 963 c4 -3 1 -13 -6 -22 -11 -14 -10 -14 5 -2 16 12 16 31 1 31
-4 0 -3 -3 0 -7z"/>
<path d="M1473 866 l-18 -21 24 20 c13 11 25 19 28 17 3 -2 7 -2 9 1 2 2 -3 4
-11 4 -8 0 -23 -10 -32 -21z"/>
<path d="M1358 863 c7 -3 16 -2 19 1 4 3 -2 6 -13 5 -11 0 -14 -3 -6 -6z"/>
<path d="M1430 825 c-11 -13 -10 -14 4 -9 9 3 16 10 16 15 0 13 -6 11 -20 -6z"/>
<path d="M1330 810 c-9 -6 -10 -10 -3 -10 6 0 15 5 18 10 8 12 4 12 -15 0z"/>
<path d="M1371 764 c0 -11 3 -14 6 -6 3 7 2 16 -1 19 -3 4 -6 -2 -5 -13z"/>
<path d="M1340 755 c-11 -13 -10 -14 4 -9 9 3 16 10 16 15 0 13 -6 11 -20 -6z"/>
<path d="M1315 720 c3 -5 8 -10 11 -10 2 0 4 5 4 10 0 6 -5 10 -11 10 -5 0 -7
-4 -4 -10z"/>
<path d="M1317 693 c-10 -10 -8 -23 4 -23 5 0 8 4 5 9 -4 5 0 12 6 14 7 3 8 6
2 6 -6 1 -14 -2 -17 -6z"/>
<path d="M1816 1102 c-3 -5 1 -9 9 -9 8 0 12 4 9 9 -3 4 -7 8 -9 8 -2 0 -6 -4
-9 -8z"/>
<path d="M1795 1059 c-3 -4 2 -6 10 -5 21 3 28 13 10 13 -9 0 -18 -4 -20 -8z"/>
<path d="M1794 1022 c4 -3 14 -7 22 -8 9 -1 13 0 10 4 -4 3 -14 7 -22 8 -9 1
-13 0 -10 -4z"/>
<path d="M1775 980 c-3 -5 -1 -10 4 -10 6 0 11 5 11 10 0 6 -2 10 -4 10 -3 0
-8 -4 -11 -10z"/>
<path d="M1859 968 c-5 -18 -6 -38 -1 -34 7 8 12 36 6 36 -2 0 -4 -1 -5 -2z"/>
<path d="M2113 955 c0 -8 4 -12 9 -9 5 3 6 10 3 15 -9 13 -12 11 -12 -6z"/>
<path d="M1915 880 c3 -5 8 -10 11 -10 2 0 4 5 4 10 0 6 -5 10 -11 10 -5 0 -7
-4 -4 -10z"/>
<path d="M496 1073 c-6 -14 -5 -15 5 -6 7 7 10 15 7 18 -3 3 -9 -2 -12 -12z"/>
<path d="M455 1009 c-4 -6 -5 -12 -2 -15 2 -3 7 2 10 11 7 17 1 20 -8 4z"/>
<path d="M450 976 c0 -2 8 -10 18 -17 15 -13 16 -12 3 4 -13 16 -21 21 -21 13z"/>
<path d="M434 956 c1 -8 5 -18 8 -22 4 -3 5 1 4 10 -1 8 -5 18 -8 22 -4 3 -5
-1 -4 -10z"/>
<path d="M420 905 c0 -2 6 -8 13 -14 10 -8 14 -7 14 2 0 8 -6 14 -14 14 -7 0
-13 -1 -13 -2z"/>
<path d="M2436 758 c3 -5 10 -6 15 -3 13 9 11 12 -6 12 -8 0 -12 -4 -9 -9z"/>
<path d="M336 702 c-3 -5 1 -9 9 -9 8 0 12 4 9 9 -3 4 -7 8 -9 8 -2 0 -6 -4
-9 -8z"/>
<path d="M970 600 c0 -5 5 -10 10 -10 6 0 10 5 10 10 0 6 -4 10 -10 10 -5 0
-10 -4 -10 -10z"/>
<path d="M1737 595 c-4 -8 -3 -16 1 -19 4 -3 9 4 9 15 2 23 -3 25 -10 4z"/>
<path d="M513 573 c0 -9 4 -10 14 -2 7 6 13 12 13 14 0 1 -6 2 -13 2 -8 0 -14
-6 -14 -14z"/>
<path d="M1695 580 c3 -5 8 -10 11 -10 2 0 4 5 4 10 0 6 -5 10 -11 10 -5 0 -7
-4 -4 -10z"/>
<path d="M1795 581 c-3 -5 -2 -12 3 -15 5 -3 9 1 9 9 0 17 -3 19 -12 6z"/>
<path d="M539 553 c-13 -16 -12 -17 4 -4 9 7 17 15 17 17 0 8 -8 3 -21 -13z"/>
<path d="M946 544 c-6 -15 -4 -15 11 -3 10 7 20 15 22 16 2 2 -3 3 -11 3 -9 0
-19 -7 -22 -16z"/>
<path d="M1695 540 c3 -5 8 -10 11 -10 2 0 4 5 4 10 0 6 -5 10 -11 10 -5 0 -7
-4 -4 -10z"/>
<path d="M1735 541 c-3 -5 -2 -12 3 -15 5 -3 9 1 9 9 0 17 -3 19 -12 6z"/>
<path d="M2123 535 c1 -5 -8 -10 -20 -9 -12 0 -20 -3 -17 -8 3 -4 -3 -20 -14
-36 -48 -68 15 -159 117 -167 38 -3 94 16 121 40 9 8 19 13 21 11 2 -2 5 5 6
17 1 12 4 31 6 42 4 21 -10 62 -28 81 -26 27 -73 42 -132 41 -36 -1 -61 -6
-60 -12z"/>
<path d="M1276 522 c-3 -5 1 -9 9 -9 8 0 12 4 9 9 -3 4 -7 8 -9 8 -2 0 -6 -4
-9 -8z"/>
<path d="M1666 502 c-3 -5 1 -9 9 -9 8 0 12 4 9 9 -3 4 -7 8 -9 8 -2 0 -6 -4
-9 -8z"/>
<path d="M910 480 c0 -5 5 -10 11 -10 5 0 7 5 4 10 -3 6 -8 10 -11 10 -2 0 -4
-4 -4 -10z"/>
<path d="M940 460 c-12 -7 -10 -9 7 -7 12 0 19 5 17 9 -6 10 -6 10 -24 -2z"/>
<path d="M1273 425 c0 -8 4 -12 9 -9 5 3 6 10 3 15 -9 13 -12 11 -12 -6z"/>
<path d="M534 416 c1 -8 5 -18 8 -22 4 -3 5 1 4 10 -1 8 -5 18 -8 22 -4 3 -5
-1 -4 -10z"/>
<path d="M933 355 c0 -8 4 -12 9 -9 5 3 6 10 3 15 -9 13 -12 11 -12 -6z"/>
</g>
</svg>
